<?xml version="1.0" standalone="no"?>
<!DOCTYPE svg PUBLIC "-//W3C//DTD SVG 20010904//EN"
 "http://www.w3.org/TR/2001/REC-SVG-20010904/DTD/svg10.dtd">
<svg version="1.0" xmlns="http://www.w3.org/2000/svg"
 width="533.000000pt" height="533.000000pt" viewBox="0 0 533.000000 533.000000"
 preserveAspectRatio="xMidYMid meet">
<metadata>
Created by potrace 1.14, written by Peter Selinger 2001-2017
</metadata>
<g transform="translate(0.000000,533.000000) scale(0.100000,-0.100000)"
fill="#000000" stroke="none">
<path d="M1888 4724 c-442 -57 -837 -299 -1085 -664 -29 -43 -45 -70 -98 -165
-47 -83 -104 -245 -131 -367 -37 -169 -47 -464 -19 -568 2 -8 7 -31 10 -50 19
-117 80 -291 149 -428 31 -61 145 -232 184 -275 211 -235 398 -361 707 -476
25 -9 33 -22 48 -69 32 -99 145 -318 195 -377 4 -5 19 -25 32 -44 205 -286
614 -534 965 -585 23 -4 52 -9 65 -12 45 -9 283 -11 360 -3 177 19 347 68 507
144 341 165 593 429 756 795 37 83 86 258 104 375 10 63 10 363 0 434 -14 101
-61 275 -97 356 -99 223 -185 355 -330 504 -43 44 -134 125 -159 141 -13 8
-29 20 -35 25 -67 61 -288 176 -408 211 -45 14 -47 16 -74 87 -47 122 -92 214
-146 300 -64 100 -54 87 -132 177 -260 303 -578 476 -986 536 -81 12 -283 11
-382 -2z"/>
</g>
</svg>
